<?xml version="1.0" encoding="UTF-8"?>
<svg id="Layer_1" xmlns="http://www.w3.org/2000/svg" version="1.1" viewBox="0 0 277.1 245">
  <!-- Generator: Adobe Illustrator 30.1.0, SVG Export Plug-In . SVG Version: 2.1.1 Build 136)  -->
  <path d="M26.7,198.4c-.6-1.1-1.1-1.7-1.4-2.5-1.9-5-4.5-7.7-10.7-8.2-8.6-.8-13.2-7.4-14.6-15.6-1.8-11.2-2-22.6.2-33.8,1.7-8.8,6.7-13.5,15.4-14.6,3.2-.4,4.9-1.8,6.1-4.9,11.4-30.7,33.9-47.1,65.9-51.2,1,0,2-.5,3-.4,5.8.4,9.7-2.1,13.4-6.7,5.4-6.8,13.5-9.4,21.9-10.9,7-1.3,7-1.2,7.1-8.5,0-5.1,0-9.4-4.9-13.5-6.7-5.6-5.4-15.8,1.4-21.5,6-5.1,15.8-3.6,20.7,3.2,4.8,6.6,3.2,16.1-3.9,20.6-2,1.3-2.8,2.6-2.7,4.8,0,4-.9,8.4.4,11.9,1.6,4.4,6.9,2.5,10.5,3.6,8.4,2.7,16.3,6,21.4,13.7,1.6,2.5,3.8,2.7,6.4,2.9,21.2,1.2,40,8.1,55.2,23.5,7.9,8.1,13.8,17.5,17.5,28.2.9,2.5,1.9,4.6,4.9,4.9,13.2,1.3,16.4,9.3,17.2,19,.9,9.9,1.4,20-.5,29.9-2.1,10.5-7.5,15.3-18,16-3.1.2-4.2,1.9-5.3,4.3-8.7,18.4-22.4,31.7-41.3,39.3-9,3.7-18.5,5.4-28.3,5.4-30.3,0-60.6.5-90.9-.1-28.8-.6-50.9-13.6-66-38.8M104.7,95.4h-6.5c-32.9.2-58,24-59.7,56.9-1.7,32.7,25.5,61.4,58.2,61.4h81.9c32.8,0,58.7-25.7,59.1-58.5.5-33-25.7-59.7-58.7-59.8h-74.4.1Z"/>
  <path d="M155.6,170.3l-.6-.6-.8-.3c-3.6-1.2-5.8,1.2-6.7,2.2l-.2.3c-3.5,3.6-6.4,5.4-9,5.4h0c-2.5,0-5.3-1.7-8.6-5.1l-.3-.4c-3-3.3-6-3.8-8.9-1.6-2.1,1.6-3.8,4.5-.5,9.3l.2.3c3.9,5.6,10.4,9.1,17.6,9.3h.6c6.8,0,13.2-3.1,17.2-8.3l.3-.4c1.1-1.4,4.5-5.7-.2-10.3v.2Z"/>
  <path d="M107.9,148c-2.5-9.9-12-17.5-22.2-17.7-9.2-.2-16.6,3.5-21.4,11.4-5.5,9.3-5.1,18.7,1.4,28.3,1,1.1,2,2.2,3.1,3.2,8.2,7.5,18.9,8.5,28.5,2.6,9.2-5.6,13.4-16.7,10.6-27.8h0ZM84.6,166.8c-1.9-5.9-6-9.2-11.8-12,5.5-2.8,9.6-6.2,11.9-11.7,1.7,6.2,7,8.6,11.1,12.2-5.4,2.4-9,5.9-11.2,11.5Z"/>
  <path d="M203.2,133.2c-10-5.3-20-3.7-29.3,5-1,1.3-2.1,2.6-2.9,4-5,9.2-4.8,18.3,1.2,26.8,5.5,7.7,13.1,11.8,22.8,10.2,10.7-1.7,19.3-10.6,20.8-20.8,1.4-10.1-3.8-20.5-12.6-25.2ZM192.8,164.4c-1,1.5-1.7,1.2-2.1.3-2.1-4.5-5.5-7.7-11-9.9,6.1-2.4,10.1-5.8,12.1-12.4,2.5,6.5,6.7,10,12.8,12.6-5.6,1.9-9.7,4.5-11.8,9.4h0Z"/>
</svg>